<?xml version="1.0" encoding="UTF-8" standalone="no"?>
<!-- Created with Inkscape (http://www.inkscape.org/) -->

<svg
   xmlns:osb="http://www.openswatchbook.org/uri/2009/osb"
   xmlns:dc="http://purl.org/dc/elements/1.1/"
   xmlns:cc="http://creativecommons.org/ns#"
   xmlns:rdf="http://www.w3.org/1999/02/22-rdf-syntax-ns#"
   xmlns:svg="http://www.w3.org/2000/svg"
   xmlns="http://www.w3.org/2000/svg"
   xmlns:sodipodi="http://sodipodi.sourceforge.net/DTD/sodipodi-0.dtd"
   xmlns:inkscape="http://www.inkscape.org/namespaces/inkscape"
   width="869.91833mm"
   height="160.23604mm"
   viewBox="0 0 869.91833 160.23604"
   version="1.1"
   id="svg8"
   inkscape:version="0.92.2 5c3e80d, 2017-08-06"
   sodipodi:docname="NKCUG.svg"
   inkscape:export-filename="/Users/reno.89m/Desktop/s.png"
   inkscape:export-xdpi="245.561"
   inkscape:export-ydpi="245.561">
  <defs
     id="defs2">
    <linearGradient
       id="linearGradient2439"
       osb:paint="solid">
      <stop
         style="stop-color:#fffffd;stop-opacity:1;"
         offset="0"
         id="stop2437" />
    </linearGradient>
  </defs>
  <sodipodi:namedview
     id="base"
     pagecolor="#ffffff"
     bordercolor="#666666"
     borderopacity="1.0"
     inkscape:pageopacity="0.0"
     inkscape:pageshadow="2"
     inkscape:zoom="0.1767767"
     inkscape:cx="1581.3819"
     inkscape:cy="484.3584"
     inkscape:document-units="mm"
     inkscape:current-layer="layer1"
     showgrid="false"
     inkscape:window-width="1393"
     inkscape:window-height="717"
     inkscape:window-x="34"
     inkscape:window-y="1"
     inkscape:window-maximized="0"
     fit-margin-top="0"
     fit-margin-left="0"
     fit-margin-right="0"
     fit-margin-bottom="0" />
  <metadata
     id="metadata5">
    <rdf:RDF>
      <cc:Work
         rdf:about="">
        <dc:format>image/svg+xml</dc:format>
        <dc:type
           rdf:resource="http://purl.org/dc/dcmitype/StillImage" />
        <dc:title></dc:title>
      </cc:Work>
    </rdf:RDF>
  </metadata>
  <g
     inkscape:label="Main"
     inkscape:groupmode="layer"
     id="layer1"
     style="display:inline;opacity:1"
     transform="translate(-378.87388,30.93536)">
    <path
       style="fill:#000000;fill-opacity:1;stroke:none;stroke-width:0.26458332px;stroke-linecap:butt;stroke-linejoin:miter;stroke-opacity:1"
       d="M 385.56969,-20.115295 V 128.98958 h -6.69581 l 0.14772,-158.993847"
       id="path885"
       inkscape:connector-curvature="0"
       sodipodi:nodetypes="cccc" />
    <path
       style="fill:#ceae66;fill-opacity:1;stroke:none;stroke-width:0.26458332px;stroke-linecap:butt;stroke-linejoin:miter;stroke-opacity:1"
       d="M 480.78448,129.15474 379.0216,-30.004269 h 6.98659 L 487.66666,129.15474"
       id="path889"
       inkscape:connector-curvature="0"
       sodipodi:nodetypes="cccc" />
    <path
       style="fill:#000000;fill-opacity:1;stroke:#000000;stroke-width:0.26458332px;stroke-linecap:butt;stroke-linejoin:miter;stroke-opacity:1"
       d="m 481.0225,-30.35036 h 6.23019"
       id="path891"
       inkscape:connector-curvature="0"
       sodipodi:nodetypes="cc" />
    <path
       style="fill:#000000;fill-opacity:1;stroke:#000000;stroke-width:0.26458332px;stroke-linecap:square;stroke-linejoin:miter;stroke-opacity:1"
       d="m 487.25269,-30.350363 0.28205,159.050673 -6.69033,-10.47651 0.17809,-148.57416"
       id="path893"
       inkscape:connector-curvature="0"
       sodipodi:nodetypes="cccc" />
    <path
       style="fill:#000000;fill-opacity:1;stroke:none;stroke-width:0.26656756px;stroke-linecap:butt;stroke-linejoin:miter;stroke-opacity:1"
       d="m 532.28394,-30.93536 -0.0935,73.754477 -6.2905,6.520586 -0.0233,-80.27506"
       id="path918"
       inkscape:connector-curvature="0"
       sodipodi:nodetypes="cccc" />
    <path
       style="fill:#000000;fill-opacity:1;stroke:none;stroke-width:0.26458332px;stroke-linecap:butt;stroke-linejoin:miter;stroke-opacity:1"
       d="m 525.92551,129.0888 h 6.53191 V 55.795938 l -6.57302,-6.573024 z"
       id="path924"
       inkscape:connector-curvature="0"
       sodipodi:nodetypes="ccccc" />
    <path
       style="display:inline;opacity:1;fill:#ffffff;fill-opacity:1;fill-rule:nonzero;stroke:none;stroke-width:0.69999999;stroke-linecap:butt;stroke-linejoin:miter;stroke-miterlimit:4;stroke-dasharray:none;stroke-opacity:1"
       d="m 525.8844,49.222914 79.39574,-79.39575 h 6.75859 l -79.50684,79.50684 79.74265,79.742646 h -7.25879 z"
       id="path914-7"
       inkscape:connector-curvature="0"
       sodipodi:nodetypes="ccccccc" />
    <path
       style="fill:#000000;fill-opacity:1;stroke:none;stroke-width:0.26458332px;stroke-linecap:butt;stroke-linejoin:miter;stroke-opacity:1"
       d="m 754.71569,98.420447 6.90794,-0.0445 c -8.85537,12.197253 -7.1252,11.228163 -17.02853,21.587493 -5.96131,4.88354 -12.89327,8.25721 -21.33236,9.28644 l -23.67716,0.0464 0.17236,-6.85716 23.1751,-0.16029 c 7.60648,-0.31548 15.43943,-5.45919 18.82617,-8.63375 6.22056,-5.83084 7.3684,-8.03057 12.95648,-15.224597 z"
       id="path842"
       inkscape:connector-curvature="0"
       sodipodi:nodetypes="cccccccscc" />
    <path
       style="fill:#000000;fill-opacity:1;stroke:none;stroke-width:0.26458332px;stroke-linecap:butt;stroke-linejoin:miter;stroke-opacity:1"
       d="m 699.82855,-23.827838 -0.10962,-6.650418 24.00728,0.07308 c 1.63371,0.385562 2.65411,0.135354 4.01037,0.474904 5.84877,1.464284 10.22748,3.608167 18.0493,9.771307 5.80803,4.576396 11.87059,13.134004 15.28498,19.57104627 l -6.65041,-0.14616306 c -3.27771,-4.83621851 -6.93602,-10.48668221 -11.4029,-13.88323221 -6.0285,-4.583991 -11.43971,-8.865227 -20.46064,-9.064362 z"
       id="path844"
       inkscape:connector-curvature="0"
       sodipodi:nodetypes="cccssccscc" />
    <path
       style="fill:#5699d3;fill-opacity:1;stroke:none;stroke-width:0.2;stroke-linecap:butt;stroke-linejoin:miter;stroke-miterlimit:4;stroke-dasharray:none;stroke-opacity:1"
       d="m 665.01547,109.61258 c -3.96922,-8.21938 -9.12577,-9.37137 -16.70312,-39.184816 L 627.17836,50.803527 647.89517,30.710703 c 10.02018,-48.065235 35.72312,-60.456811 51.82376,-61.188959 l 0.10962,6.650418 c -20.98206,1.986766 -37.37539,21.2315782 -44.7677,54.321257 l -19.73413,20.232083 20.1977,19.440726 c 3.84266,14.391524 7.54833,24.757024 14.77892,35.757962 11.31705,13.24489 18.65637,15.64982 29.4546,16.51493 l -0.039,6.86156 c -17.05138,-0.42872 -25.89589,-11.23601 -34.70346,-19.6881 z"
       id="path858"
       inkscape:connector-curvature="0"
       sodipodi:nodetypes="cccccccccccccc" />
    <path
       style="fill:#00000c;fill-opacity:1;stroke:none;stroke-width:0.26458332px;stroke-linecap:butt;stroke-linejoin:miter;stroke-opacity:1"
       d="m 803.07654,-18.879427 5.9862,0.132292 0.56224,123.262785 c 2.90272,7.28074 6.59741,12.62912 11.95483,16.40313 l -0.10955,4.88962 c -5.66037,-0.0522 -16.88533,-10.5896 -18.37925,-20.11039 z"
       id="path862"
       inkscape:connector-curvature="0"
       sodipodi:nodetypes="ccccccc" />
    <path
       style="display:inline;opacity:1;fill:#00000c;fill-opacity:1;stroke:none;stroke-width:0.26458332px;stroke-linecap:butt;stroke-linejoin:miter;stroke-opacity:1"
       d="m 897.22224,-18.884594 -5.9862,0.13229 -0.56224,123.262784 c -2.90272,7.28074 -6.59741,12.62912 -11.95483,16.40313 l 0.10955,4.88962 c 5.66037,-0.0522 16.88533,-10.5896 18.37925,-20.11039 z"
       id="path862-7"
       inkscape:connector-curvature="0"
       sodipodi:nodetypes="ccccccc" />
    <path
       style="fill:#cf75ff;fill-opacity:1;stroke:none;stroke-width:0.26458332px;stroke-linecap:butt;stroke-linejoin:miter;stroke-opacity:1"
       d="m 878.71897,120.91361 0.10955,4.88962 -57.35826,0.005 0.10955,-4.88962 c 19.04638,-0.002 38.09278,-0.003 57.13916,-0.005 z"
       id="path881"
       inkscape:connector-curvature="0"
       sodipodi:nodetypes="ccccc" />
    <path
       style="fill:#404aff;fill-opacity:1;stroke:none;stroke-width:0.26458332px;stroke-linecap:butt;stroke-linejoin:miter;stroke-opacity:1"
       d="m 993.53436,56.497515 0.18713,6.828731 63.04881,7e-6 v -6.922281 z"
       id="path886"
       inkscape:connector-curvature="0"
       sodipodi:nodetypes="ccccc" />
    <path
       style="fill:#000000;fill-opacity:0.98023712;stroke:none;stroke-width:0.26458332px;stroke-linecap:butt;stroke-linejoin:miter;stroke-opacity:1"
       d="m 1026.0542,-8.329169 6.35,-3.704167 c -11.2705,-8.011193 -22.6699,-17.62739 -47.09587,-18.256246 -38.60105,-0.670203 -65.69608,33.2284945 -70.11458,74.877083 3.49555,65.032939 44.48975,79.120719 68.79166,81.756249 34.08679,-1.35558 60.52469,-18.00881 72.78489,-63.017497 l -8.0789,-1.16e-4 c -8.7714,27.958043 -22.9782,55.732473 -67.08724,56.667613 -61.60677,-8.21763 -59.70973,-77.022759 -59.00207,-75.406253 6.25873,-55.709188 46.56967,-70.558533 62.44166,-68.791666 14.46838,-0.295961 27.94765,6.331743 41.01045,15.874996 z"
       id="path908"
       inkscape:connector-curvature="0"
       sodipodi:nodetypes="cccccccccccc" />
    <path
       style="fill:#c80b29;fill-opacity:1;stroke:none;stroke-width:0.26458332px;stroke-linecap:butt;stroke-linejoin:miter;stroke-opacity:1"
       d="m 1143.2754,-22.640994 6.2909,2e-6 -5.4302,35.893628 -6.2161,-0.04276 z"
       id="path910"
       inkscape:connector-curvature="0"
       sodipodi:nodetypes="ccccc" />
    <path
       style="fill:#c80b29;fill-opacity:1;stroke:none;stroke-width:0.26458332px;stroke-linecap:butt;stroke-linejoin:miter;stroke-opacity:0.03952571"
       d="m 1102.2499,13.097644 -5.9056,7.065919 39.9662,0.0775 1.6095,-7.031183 z"
       id="path916"
       inkscape:connector-curvature="0"
       sodipodi:nodetypes="ccccc" />
    <path
       style="display:inline;opacity:1;fill:#fffb00;fill-opacity:1;stroke:none;stroke-width:0.26458332px;stroke-linecap:butt;stroke-linejoin:miter;stroke-opacity:0.03952571"
       d="m 1178.1967,20.396056 5.9056,-7.06592 -39.9662,-0.0775 -1.6095,7.03118 z"
       id="path916-9"
       inkscape:connector-curvature="0"
       sodipodi:nodetypes="ccccc" />
    <path
       style="display:inline;opacity:1;fill:#fffb00;fill-opacity:1;stroke:none;stroke-width:0.26458332px;stroke-linecap:butt;stroke-linejoin:miter;stroke-opacity:1"
       d="m 1137.246,56.134693 h -6.2909 l 5.4302,-35.89363 6.2161,0.04276 z"
       id="path910-3"
       inkscape:connector-curvature="0"
       sodipodi:nodetypes="ccccc" />
    <path
       style="fill:#000006;fill-opacity:1;stroke:none;stroke-width:0.26458332px;stroke-linecap:butt;stroke-linejoin:miter;stroke-opacity:1"
       d="m 1137.92,13.209872 -1.6095,7.031188 6.2909,3e-6 1.5347,-6.988427 z"
       id="path962"
       inkscape:connector-curvature="0" />
    <path
       style="display:inline;opacity:1;fill:#c80b29;fill-opacity:1;stroke:none;stroke-width:0.26458332px;stroke-linecap:butt;stroke-linejoin:miter;stroke-opacity:1"
       d="m 1201.8611,119.42953 h -6.2909 l 5.4302,-35.893648 6.2161,0.0428 z"
       id="path910-8"
       inkscape:connector-curvature="0"
       sodipodi:nodetypes="ccccc" />
    <path
       style="display:inline;opacity:1;fill:#c80b29;fill-opacity:1;stroke:none;stroke-width:0.26458332px;stroke-linecap:butt;stroke-linejoin:miter;stroke-opacity:0.03952571"
       d="m 1242.8866,83.690872 5.9056,-7.06592 -39.9662,-0.0775 -1.6095,7.03119 z"
       id="path916-0"
       inkscape:connector-curvature="0"
       sodipodi:nodetypes="ccccc" />
    <path
       style="display:inline;opacity:1;fill:#fffb00;fill-opacity:1;stroke:none;stroke-width:0.26458332px;stroke-linecap:butt;stroke-linejoin:miter;stroke-opacity:0.03952571"
       d="m 1166.9398,76.392462 -5.9056,7.06592 39.9662,0.0775 1.6095,-7.03118 z"
       id="path916-9-2"
       inkscape:connector-curvature="0"
       sodipodi:nodetypes="ccccc" />
    <path
       style="display:inline;opacity:1;fill:#fffb00;fill-opacity:1;stroke:none;stroke-width:0.26458332px;stroke-linecap:butt;stroke-linejoin:miter;stroke-opacity:1"
       d="m 1207.8905,40.653825 h 6.2909 l -5.4302,35.893627 -6.2161,-0.0428 z"
       id="path910-3-4"
       inkscape:connector-curvature="0"
       sodipodi:nodetypes="ccccc" />
    <path
       style="display:inline;opacity:1;fill:#000006;fill-opacity:1;stroke:none;stroke-width:0.26458332px;stroke-linecap:butt;stroke-linejoin:miter;stroke-opacity:1"
       d="m 1207.2165,83.578642 1.6095,-7.03119 h -6.2909 l -1.5347,6.98843 z"
       id="path962-8"
       inkscape:connector-curvature="0" />
  </g>
</svg>
