<?xml version="1.0" encoding="UTF-8" standalone="no"?>
<svg
   xmlns:dc="http://purl.org/dc/elements/1.1/"
   xmlns:cc="http://creativecommons.org/ns#"
   xmlns:rdf="http://www.w3.org/1999/02/22-rdf-syntax-ns#"
   xmlns:svg="http://www.w3.org/2000/svg"
   xmlns="http://www.w3.org/2000/svg"
   viewBox="0 0 1024 1024"
   height="1024"
   width="1024"
   xml:space="preserve"
   id="svg2"
   version="1.1"><metadata
     id="metadata8"><rdf:RDF><cc:Work
         rdf:about=""><dc:format>image/svg+xml</dc:format><dc:type
           rdf:resource="http://purl.org/dc/dcmitype/StillImage" /></cc:Work></rdf:RDF></metadata><defs
     id="defs6" /><g
     transform="matrix(1.3333333,0,0,-1.3333333,0,1024)"
     id="g10"><path
       id="path12"
       style="fill:#000000;fill-opacity:1;fill-rule:nonzero;stroke:none"
       d="M 0,0 H 768 V 768 H 0 Z" /><g
       transform="translate(85.1519,324.7332)"
       id="g14"><path
         id="path16"
         style="fill:#00a64e;fill-opacity:1;fill-rule:nonzero;stroke:none"
         d="M 0,0 64.978,118.386 H 27.348 L -37.572,0 Z" /></g><g
       transform="translate(102.2713,324.6763)"
       id="g18"><path
         id="path20"
         style="fill:#1586d1;fill-opacity:1;fill-rule:nonzero;stroke:none"
         d="M 0,0 10.229,118.443 H 54.778 L 44.55,0 Z" /></g><g
       transform="translate(146.8211,324.6763)"
       id="g22"><path
         id="path24"
         style="fill:#00a64e;fill-opacity:1;fill-rule:nonzero;stroke:none"
         d="m 0,0 57.438,118.443 h 32.73 L 34.118,0 Z" /></g><g
       transform="translate(194.0309,324.6763)"
       id="g26"><path
         id="path28"
         style="fill:#1586d1;fill-opacity:1;fill-rule:nonzero;stroke:none"
         d="M 0,0 10.229,118.443 H 52.778 L 42.55,0 Z" /></g><g
       transform="translate(263.6969,324.6763)"
       id="g30"><path
         id="path32"
         style="fill:#1586d1;fill-opacity:1;fill-rule:nonzero;stroke:none"
         d="M 0,0 5.933,69.552 H 48.482 L 42.55,0 Z" /></g><g
       transform="translate(272.0841,423.6855)"
       id="g34"><path
         id="path36"
         style="fill:#1586d1;fill-opacity:1;fill-rule:nonzero;stroke:none"
         d="M 0,0 1.637,19.638 H 44.186 L 42.55,0 Z" /></g><g
       transform="translate(355.5516,324.6763)"
       id="g38"><path
         id="path40"
         style="fill:#1586d1;fill-opacity:1;fill-rule:nonzero;stroke:none"
         d="M 0,0 7.95,69.552 H 41.023 L 33.073,0 Z" /></g><g
       transform="translate(430.7698,394.228)"
       id="g42"><path
         id="path44"
         style="fill:#00a64e;fill-opacity:1;fill-rule:nonzero;stroke:none"
         d="M 0,0 H -26.883 L -31.04,-26.895 Z" /></g><g
       transform="translate(320.9927,324.6763)"
       id="g46"><path
         id="path48"
         style="fill:#00a64e;fill-opacity:1;fill-rule:nonzero;stroke:none"
         d="m 0,0 h 27.419 l 4.168,26.965 z" /></g><g
       transform="translate(418.0416,326.19)"
       id="g50"><path
         id="path52"
         style="fill:#db484e;fill-opacity:1;fill-rule:nonzero;stroke:none"
         d="M 0,0 20.444,17.065 H 156.07 l -1.023,-18.579 z" /></g><g
       transform="translate(444.2132,373.7234)"
       id="g54"><path
         id="path56"
         style="fill:#db484e;fill-opacity:1;fill-rule:nonzero;stroke:none"
         d="M 0,0 1.022,20.736 H 136.444 L 135.422,0 Z" /></g><g
       transform="translate(446.6682,423.6855)"
       id="g58"><path
         id="path60"
         style="fill:#db484e;fill-opacity:1;fill-rule:nonzero;stroke:none"
         d="M 0,0 1.022,19.434 H 138.489 L 137.467,0 Z" /></g><g
       transform="translate(532.2606,324.9396)"
       id="g62"><path
         id="path64"
         style="fill:#1586d1;fill-opacity:1;fill-rule:nonzero;stroke:none"
         d="M 0,0 11.371,118.18 H 53.92 L 42.524,-0.263 Z" /></g><g
       transform="translate(606.2278,373.1277)"
       id="g66"><path
         id="path68"
         style="fill:#db484e;fill-opacity:1;fill-rule:nonzero;stroke:none"
         d="m 0,0 1.022,21.1 h 113.17 L 113.17,0 Z" /></g><g
       transform="translate(601.1136,324.6763)"
       id="g70"><path
         id="path72"
         style="fill:#1586d1;fill-opacity:1;fill-rule:nonzero;stroke:none"
         d="m 0,0 6.137,69.552 h 42.55 L 42.55,0 Z" /></g></g></svg>