<?xml version="1.0" standalone="no"?>
<!DOCTYPE svg PUBLIC "-//W3C//DTD SVG 1.1//EN" "http://www.w3.org/Graphics/SVG/1.1/DTD/svg11.dtd">
<svg xmlns="http://www.w3.org/2000/svg" id="_レイヤー_1" data-name="レイヤー 1" viewBox="0 0 1392.73 246.96" width="1392.72998046875" height="246.9600067138672">
  <defs>
    <style>
      .cls-1 {
        fill: #000;
        stroke-width: 0px;
      }
    </style>
  </defs>
  <path class="cls-1" d="M904.39,85.47c-6.84.64-13.26,1.26-19.69,1.85-2.11.19-4.23.38-6.35.47-9.71.4-17.11-5.21-19.77-14.66-1.03-3.68,1.09-5.3,3.85-6.05,8.17-2.22,16.34-5.06,24.68-5.92,13.37-1.38,26.88-1.45,40.34-1.85,2.68-.08,5.4.79,8.07,1.36,3.87.83,5.45,3.49,4.77,7.19-.6,3.28-1.56,6.54-2.72,9.67-4.61,12.39-9.36,24.73-14.04,37.09-.35.92-.55,1.89-.79,2.77,11.61,1.72,23.04,3.42,34.86,5.18.45-4.19.8-8.62,1.44-13.02,1.19-8.19,4.56-11.26,11.84-11.09,4.74.11,7.4,1.87,8.18,6.57,1.29,7.75,2.25,15.56,2.91,23.39.25,2.98,1.31,4.3,4.01,5.31,5.25,1.97,10.48,4.09,15.45,6.68,11.85,6.17,12.94,22.3,2.26,30.33-2.39,1.79-4.87,1.87-7.39.61-4.34-2.19-8.62-4.5-12.91-6.8-1.84-.98-3.63-2.06-5.02-2.85-3.84,8.74-7.23,17.44-11.4,25.74-5.2,10.35-12.84,18.23-24.98,20.02-7.73,1.14-15.23.08-22-4.09-4.03-2.48-4.07-4.27-.68-7.52,5.84-5.61,12.61-10.58,17.2-17.07,5.7-8.06,9.6-17.39,14.26-26.18,1.44-2.73.32-4.48-2.44-4.87-9.36-1.32-18.72-2.74-28.13-3.54-6.43-.54-6.47-.1-8.91,5.95-5.41,13.43-10.9,26.83-19.08,38.91-4.64,6.85-10.32,12.65-18.17,15.64-14.64,5.58-28.72.33-36.95-13.46-14.41-24.14-3.16-54.8,24.47-64.84,9.04-3.28,18.88-4.42,28.42-6.22,2.74-.52,4.55-1.19,5.42-4.1,2.72-9.08,5.66-18.1,8.48-27.15.28-.9.29-1.88.51-3.45ZM884.65,146.54c-.36-.39-.72-.77-1.08-1.16-7.01-.66-13.51,1.31-19.37,4.99-8.14,5.11-10.81,14.31-7.23,23.23,1.11,2.78,2.67,5.11,5.91,5.63,3.35.54,5.65-1.31,7.03-3.92,5.04-9.53,9.85-19.17,14.74-28.77Z"/>
  <path class="cls-1" d="M1320.06,97.28c-7.28-10.93-13.67-21.97-23.97-29.92-4-3.09-4.55-4.14-2.69-8.82,1.15-2.88,2.77-5.57,4.23-8.32,1.34-2.53,3.2-2.97,5.49-1.22,2.68,2.04,5.33,4.13,8.02,6.16,1.88,1.42,3.8,2.78,6.53,4.78,2.88-6.05,5.72-11.54,8.13-17.21,2.89-6.81,2.77-6.97,9.52-4.06,2.84,1.23,5.59,2.77,8.17,4.49,2.74,1.83,3.34,4.4,1.82,7.51-2.94,6.04-8.14,9.67-13.63,12.98-2.44,1.47-5,2.73-7.7,4.19,3.07,2.93,5.95,5.68,9.12,8.71,5.9-6.57,9.96-14.42,13.12-23.53,5.09,2.32,9.95,4.44,14.73,6.74,3.36,1.62,3.75,4.32,2.32,7.56-3.46,7.82-9.76,12.77-16.9,16.9-1.39.81-2.81,1.56-4.47,2.48,14.6,14.06,33.31,20.7,50.81,30.04-10.53,4.96-20.84,9.26-31.94,11.54-12.06,2.47-19.97-3.95-27.14-12.18-1.94-2.22-3.82-4.5-6.59-7.77-.63,10.96-7.4,11.2-14.78,10.94-12.39-.44-24.73-.25-36.69,3.75-6.25,2.09-11.82,1.17-16.03-4.42-.29-.39-.74-.67-1.14-.97-.19-.15-.43-.23-1.21-.62-13.74,14.79-31.28,19.54-51.85,17.67,1.18-1.01,1.8-1.67,2.54-2.16,12.51-8.26,23.31-18.38,32.91-29.85,3.12-3.73,3.34-4.79-.95-7.24-8.89-5.09-10.73-13.17-10.51-22.36.02-.82.34-1.64.58-2.77,5.5,2.7,10.73,5.3,15.99,7.83,2.13,1.03,4.41,1.79,6.49,2.91,2.61,1.41,4.28.87,5.77-1.71,2.23-3.83,4.76-7.49,7.15-11.22-.21-.33-.41-.65-.62-.98-3.94.83-7.97,1.36-11.8,2.53-11.19,3.4-18.99-1.77-26.27-10.03,1.48-.75,2.69-1.51,3.99-1.99,11.46-4.25,22.92-8.5,34.42-12.64,7.99-2.87,15.54-1.08,22.67,2.86,4.36,2.4,5.19,4.64,3.62,9.34-4.97,14.87-12.05,28.74-20.35,42.01-.98,1.56-1.83,3.19-3.18,5.55,17.56-3.26,33.93-9.39,52.23-7.48Z"/>
  <path class="cls-1" d="M1142.21,178.62c4.5-.4,8.22-.86,11.95-1.02,3.76-.17,5.73-1.94,5.99-5.68.65-9.08,1.56-18.15,1.9-27.25.51-13.48.62-26.97.89-40.45.03-1.24,0-2.47,0-4.46-6.8.35-13.4.27-19.88,1.16-5.87.81-11.59,2.72-17.41,4.03-2.05.46-4.18.84-6.27.83-4.74-.02-6.67-1.47-7.52-6.1-.83-4.53-1.37-9.14-1.65-13.74-.74-12.09-1.29-24.19-1.89-36.28-.04-.73.14-1.47.17-1.83,7.56-2.34,14.81-4.82,22.19-6.81,12.57-3.39,25.35-5.3,37.9-.31,4.74,1.88,9.26,4.79,13.23,8.03,4.14,3.38,6.07,8.04,5.97,13.84-.52,30.1-.36,60.22-1.13,90.31-.35,13.81-1.65,27.67-3.65,41.35-1.88,12.91-7.79,15.2-19.06,8.52-9.54-5.66-15.24-14.82-21.77-24.14ZM1129.5,68.05c6.56-.89,12.84-1.84,19.14-2.55,5.02-.57,9.37,2.71,10.42,7.57.47,2.19-.16,3.81-2.56,4.08-8.71,1-17.43,1.9-26.56,2.89.14,1.29.36,3.33.62,5.75,2.79-.2,5.25-.5,7.71-.54,7.95-.14,16.08-2.81,24,2.05-.5-8.44-.9-16.4-1.48-24.35-.34-4.67-1.41-5.85-6.13-5.39-7.3.71-14.57,1.86-21.8,3.12-4.4.77-5.15,2.75-3.36,7.37Z"/>
  <path class="cls-1" d="M1230.07,203.63c16.02-13.04,25.2-28.92,26.69-35.6-16.04,6.13-24.9-4.22-34.96-14.47,2.07-.61,3.17-1.05,4.32-1.26,11.78-2.12,23.56-4.31,35.38-6.23,3.05-.5,4.51-1.65,4.22-4.79-.33-3.58-.27-7.23-.97-10.74-.44-2.23.2-3.31,2.08-3.37,4.22-.15,8.51-.42,12.65.23,4.54.7,6.79,4.35,7.9,8.58.47,1.8.68,3.67,1.13,6.19,4.31-.52,8.66-1.04,13.32-1.6,0-5.45.03-10.43-.01-15.42-.02-2.48.93-3.69,3.58-3.45,4.22.37,8.51.3,12.69.94,6.29.97,7.77,2.96,7.75,9.24,0,1.97,0,3.95,0,6.19,6.3-.43,12.47-1.02,18.65-1.21,4.96-.15,9.95.1,14.91.4,1.26.08,2.68.8,3.65,1.66,4.15,3.66,6.67,15.13,4.65,20.38-1.11,2.89-3.58,3.26-6.16,3.15-10.22-.42-20.44-.94-30.67-1.37-2.73-.11-5.46-.02-9.25-.02.62,5.58.7,10.94,2.03,15.98.55,2.08,3.58,4.48,5.84,4.93,4.94.97,10.15,1.31,15.17.92,5.13-.4,8.8-3.76,11.31-8.3,1.13-2.04,2.45-3.98,3.7-5.98,7.06,5.26,12.6,20.81,9.94,28.59-.72,2.09-2.86,4.43-4.9,5.2-5.08,1.92-10.42,3.91-15.75,4.23-9.18.56-18.53.68-27.63-.45-15.15-1.88-20.13-7.91-21.12-23.19-.44-6.83-.76-13.66-1.17-21.06-3.91.35-7.77.41-11.47,1.18-1.41.29-2.8,2.04-3.64,3.45-3.48,5.91-6.53,12.07-10.14,17.9-9.5,15.34-25.11,22.19-43.71,19.18Z"/>
  <path class="cls-1" d="M569.91,71.53c-3.59-3.98-7.2-7.59-10.34-11.58-3.6-4.58-3.6-7.7.94-11.25,3.16-2.47,7.42-3.73,11.38-4.88,1.27-.37,3.97.91,4.59,2.15,3.05,6.12,5.71,12.43,8.33,18.76,1.29,3.13,1.04,6.1-2.41,7.89,8.2,9.58,2.59,25.18-11.52,26.46-5.2.47-10.38,1.19-16.16,1.86,1.16,3.44,2.11,6.62,3.31,9.69,3.81,9.76,7.8,19.44,11.54,29.22,2.26,5.91,1.37,7.89-4.83,9.57-13.29,3.61-26.9,3.78-40.5,2.66-2.01-.17-4.61-1.95-5.63-3.73-3.18-5.57-5.73-11.5-8.86-18,2.69-.23,4.36-.42,6.04-.52,4.98-.28,9.96-.5,14.94-.81,2.27-.14,3.06-1.37,2.25-3.55-2.51-6.78-4.93-13.6-7.65-20.3-.37-.9-2.3-1.66-3.5-1.65-12.61.13-25.22.44-37.82.66-1.87.03-3.75-.28-5.61-.17-7.4.45-12.1-3.54-15.06-9.65-2.24-4.62-3.67-9.63-5.7-15.13,19.82-.75,38.43-1.45,57.35-2.16-1.96-7.11-4.01-13.48-5.45-19.99-1.88-8.53-3.62-7.19,6.14-10.16,4.45-1.35,9.32-1.47,14.02-1.81,4.35-.32,7.43,1.71,8.8,6.01,1.9,5.93,3.77,11.87,5.71,17.78,1.62,4.93,2.42,5.46,7.64,4.87,6.02-.68,12.03-1.49,18.08-2.25Z"/>
  <path class="cls-1" d="M758.81,101.72c.37-.03.75-.06,1.12-.08,7.75-.38,8.1.27,7.74,7.92-.49,10.45-.41,20.92-.72,31.38-.09,2.9.92,3.81,3.85,3.91,12.51.43,24.04,4.19,34.42,11.21,8.65,5.85,12.2,14.3,11.45,24.52-.73,9.84-10.1,14.1-18.15,8.21-4.43-3.24-8.24-7.33-12.75-10.43-4.58-3.15-9.64-5.63-14.55-8.27-2.89-1.55-3.95-.23-4.22,2.77-.36,3.96-.84,7.96-1.76,11.82-1.87,7.86-6.46,13.87-13.93,17.08-14.56,6.26-29.7,7.54-45.04,3.52-3.99-1.05-7.86-3.26-11.27-5.67-14.05-9.92-12.39-30.83-.44-40.28,8.92-7.06,19.34-10.17,30.23-12.17,3.56-.65,7.15-1.23,10.75-1.52,2.54-.21,3.36-1.19,3.35-3.73-.04-9.49.07-18.99.23-28.48.11-6.55,1.55-8.4,7.89-9.89,3.87-.91,7.85-1.41,11.77-2.1.02.09.03.18.05.26ZM739.68,167.32c-8.11-.23-15.31.87-21.91,4.47-4.01,2.18-5.22,6.64-2.84,9.81,3.66,4.85,8.56,5.98,14.34,4.6,5.65-1.35,9.07-4.46,9.88-9.86.42-2.81.35-5.69.53-9.02Z"/>
  <path class="cls-1" d="M157.1,19.02c-5.51-2.52-10.89-5.39-16.57-7.48-11.2-4.12-22.85-3.91-34.35-1.78-13.01,2.41-24.98,7.57-35.56,15.72-15.55,11.96-26.31,26.96-30.79,46.36-6.5,28.1,1.37,52.79,17.49,75.48,10.79,15.19,24.34,27.4,41.36,35.45,14.45,6.83,29.76,10.82,45.64,9.96,37.49-2.02,67-18.02,85.4-51.82,4.92-9.04,8.04-18.75,9.42-28.99.14-1.07.83-2.07,1.27-3.11.34.01.68.02,1.01.03.37.95.99,1.87,1.08,2.84,2.54,27.73-4.05,52.2-25.46,71.43-12.16,10.92-26.52,17.49-42.09,21.84-14.12,3.94-28.54,5.34-43.03,3.81-30.62-3.22-56.03-16.77-76.44-39.86-12.96-14.67-22.24-31.3-26.93-50.29-3.35-13.53-4.16-27.21-2.16-41.19,3.15-21.99,12.96-40.15,29.44-54.76C71.88,8.44,90.55.61,112.22.03c13.79-.37,26.56,2.28,37.59,10.96,2.86,2.25,5.31,5.01,7.95,7.53-.22.16-.44.33-.67.49Z"/>
  <path class="cls-1" d="M728.38,73.06c5.61-.68,10.4-1.38,15.21-1.83,4.93-.46,10.16-.75,12.84,4.52,3.07,6.04,3.5,12.58.55,18.77-.76,1.59-3.54,2.84-5.54,3.1-8.91,1.18-17.86,2.1-26.81,2.78-3.9.29-6.12,1.65-7.78,5.42-7.88,17.94-15.85,35.87-27.62,51.74-4.08,5.5-8.06,11.21-14.54,14.29-8.06,3.83-16.51,3.29-24.99,1.99-3.19-.49-6.34-1.21-10.49-2.01,19.34-19.17,34.83-40.18,45.12-65.12-4.52.56-8.8,1.13-13.1,1.61-1.86.21-3.74.38-5.6.3-11.32-.49-20.43-8.43-22.98-19.79-.63-2.8.85-2.99,3-3.32,15.3-2.33,30.56-4.86,45.87-7.15,2.56-.38,3.7-1.52,4.19-3.87,2.02-9.77,4.1-19.54,6.14-29.31,1.26-6.04,1.48-6.35,7.6-6.09,2.72.11,5.5.48,8.1,1.24,11.43,3.34,15.06,9.4,12.91,21.07-.67,3.65-1.3,7.32-2.07,11.66Z"/>
  <path class="cls-1" d="M24.75,53.09c-.39,1.38-.72,2.78-1.16,4.14-2.95,8.97-6.59,17.77-8.72,26.92-3.41,14.67-2.76,29.53.72,44.19,3.91,16.47,10.89,31.51,21.26,44.96,17.39,22.55,39.51,38.14,66.99,46.06,14.41,4.15,29.1,6.41,44.01,5.21,27.13-2.19,52.11-10.1,72.17-29.72.65-.64,1.51-1.07,2.27-1.6.28.18.55.37.83.55-.46,1.08-.74,2.3-1.42,3.23-14.77,20.17-34.32,33.87-57.69,42.34-18.63,6.76-37.84,9.1-57.49,6.65-19.9-2.48-38.23-9.49-54.73-20.86-22.92-15.78-38.48-37.22-46.77-63.68C.6,147.34-.68,132.72.32,117.81c1.21-18.08,5.7-35.14,14.05-51.15,2.56-4.91,5.73-9.51,8.61-14.26.59.23,1.18.46,1.77.69Z"/>
  <path class="cls-1" d="M278.97,79.23c19.74-.74,38.17-1.42,57.18-2.13-.47-1.88-.75-3.15-1.09-4.4-1.74-6.37-3.5-12.75-5.25-19.12-.78-2.82-.27-4.9,3.04-5.43,6.24-1.01,12.44-2.3,18.71-2.96,3.84-.41,6.7,1.69,7.95,5.51,1.94,5.92,3.8,11.87,5.74,17.8,1.77,5.4,2.47,5.83,8.11,5.28,7.82-.76,15.62-1.81,23.46-2.22,6.69-.36,9.77,2.8,10.35,9.53.77,8.97-4.21,15.85-13.16,17.52-5.83,1.09-11.77,1.6-18.39,2.47,2.95,7.62,5.72,14.79,8.5,21.96,2.35,6.05,4.81,12.05,7.01,18.16,1.53,4.25.64,6.59-3.74,7.69-6.26,1.56-12.69,2.73-19.12,3.25-7.07.57-14.24.55-21.32.08-2.51-.16-5.89-1.77-7.12-3.79-3.34-5.46-5.75-11.49-8.52-17.3.23-.43.45-.85.68-1.28,2.15,0,4.31.08,6.46-.02,4.36-.19,8.72-.43,13.08-.73,2.59-.18,3.46-1.42,2.46-4.02-2.5-6.52-4.75-13.14-7.4-19.6-.41-1-2.41-1.93-3.67-1.92-12.61.1-25.23.42-37.84.65-1.62.03-3.25-.25-4.86-.13-8.21.59-13.19-3.91-16.31-10.76-1.98-4.35-3.21-9.04-4.96-14.08Z"/>
  <path class="cls-1" d="M1041.79,204.86c-6.53-5.06-10.36-11.01-10.32-19.69.16-38.98,0-77.97-.26-116.95-.02-3.02-1.61-6.03-2.53-9.23,17.53-10,36.37-16.57,57.59-14.56,10.53,1,18.85,13.42,15.66,22.48-3.89,11.05-7.31,22.26-11.05,33.36-.67,1.98-1.52,4.27-3.05,5.45-1.12.86-3.5-.09-5.26.16-6.91.99-13.8,2.12-20.69,3.22-.61.1-1.2.33-1.81.47-7.75,1.74-7.66,1.74-7.77,9.86-.29,22.48-.84,44.95-.9,67.43-.02,7.8-3.31,13.33-9.62,17.99ZM1053.73,92.4c7.77-1.12,15.51-2.2,23.23-3.42.75-.12,1.84-1.01,1.97-1.69,1.23-6.6,2.39-13.23,3.34-19.88.44-3.1-1.18-4.76-4.4-4.34-6.29.82-12.59,1.6-18.83,2.67-4.68.8-5.02,1.6-4.24,7.34,3.61-.86,7.17-1.78,10.77-2.55,7.13-1.51,9.64-.04,12.18,6.79.97,2.61.58,4.39-2.37,5.05-5.96,1.32-11.89,2.78-17.88,3.88-4.69.87-5.22,1.5-3.77,6.17Z"/>
  <path class="cls-1" d="M1131.84,140.94c2.26,0,3.99.1,5.71-.02,6.44-.45,10.36,1.8,12.17,7.88.94,3.16,1.17,6.63,1.11,9.95-.05,3.17-2.73,3.88-5.37,3.97-2.24.07-4.49-.14-6.73-.24-2.09-.09-4.17-.2-6.61-.32-.27,7.97-.57,15.68-.78,23.38-.17,6.06-1.38,11.58-6.62,15.52-3.19,2.4-6.14,2.79-8.4-.49-2.01-2.91-3.67-6.68-3.81-10.13-.32-8.08.37-16.21.63-24.32.04-1.22,0-2.45,0-4.38-4.55.5-8.97.84-13.33,1.59-1.05.18-2.26,1.53-2.73,2.63-1.41,3.32-2.53,6.77-3.71,10.19-5.5,15.96-15.49,23.58-33.09,24.75,8.93-9.98,16.72-20.19,19.52-33.92-5.85.91-11.26.93-15.41-3.77-2.59-2.93-5.92-5.31-6.91-9.86,7.32-1.63,14.33-3.31,21.39-4.68,2.56-.5,3.79-1.42,3.45-4.13-.18-1.48-.06-2.99-.06-4.49,0-3.55-.76-5.97-5.2-6.48-4.69-.54-9.9-6.48-11.67-12.13,1.2-.45,2.4-1.07,3.67-1.34,17.91-3.87,35.83-7.71,53.76-11.51,1.45-.31,2.97-.36,4.46-.37,8.75-.07,14.6,7.9,11.64,16.16-.54,1.5-2.36,3.25-3.85,3.53-2.92.55-3.23,2.28-3.25,4.52-.03,2.73,0,5.47,0,8.52ZM1100.1,145.03c3.96-.6,7.79-1.08,11.56-1.86.68-.14,1.58-1.49,1.6-2.29.18-9.99-1.42-11.42-11.34-10.4-.62.06-1.48-.12-1.82.22-.79.8-1.97,1.91-1.88,2.78.38,3.7,1.16,7.36,1.89,11.55Z"/>
  <path class="cls-1" d="M79.61,61.29c14.63-10,30.15-12.86,46.95-8.17,9.98,2.79,17.57,8.98,23.23,17.82-.68-.29-1.45-.45-2.04-.88-19.03-13.84-46.37-9.75-61.86,5.72-19.86,19.85-19.24,51.57,1.74,70.81,5.64,5.17,12.31,9.2,18.18,13.51-8.54-1.15-16.4-5.33-23.63-10.77-16.88-12.68-27.16-29.79-30.19-50.39-5.39-36.64,12.8-66.17,45.21-78.53,17.77-6.78,36.02-6.65,53.05,3.32,9.21,5.39,15.5,13.24,17.17,24.18.96,6.26-1.17,15.58-7.27,17.82-.06-.34-.25-.69-.17-.97,4.73-15.41-5.88-27.76-18.64-31.96-13.03-4.29-25.38-1.51-37.16,4.69-9.83,5.18-17.41,12.85-23.71,21.88-.4.57-.58,1.28-.87,1.93Z"/>
  <path class="cls-1" d="M384.92,160.91c2.06,5.1,4.22,9.49,5.63,14.1,3.41,11.17-1.55,21.06-12.76,24.53-6.13,1.89-12.66,2.93-19.08,3.38-14.56,1-29.19,1.86-43.64-1.17-4.12-.86-8.2-2.19-12.12-3.76-15.36-6.16-23.03-17.17-21.57-36.55,1.32-17.56,17.06-29.16,34.48-26.08.58.1,1.13.4,1.97.71-.66,2.15-1.23,4.16-1.88,6.15-2.18,6.66-2.48,13.47-1.61,20.36.97,7.62,5.52,12.23,12.81,13.8,19.44,4.2,37.79,2.99,53.13-11.69,1.24-1.19,2.66-2.18,4.65-3.78Z"/>
  <path class="cls-1" d="M496.29,135.55c-1.2,5.48-2.55,10.28-3.2,15.17-.49,3.66-.24,7.45,0,11.17.51,7.7,4.9,12.63,12.16,14.3,19.35,4.44,37.74,3.43,53.29-10.99,1.45-1.35,3.02-2.57,5.31-4.52,2.26,6.19,4.88,11.73,6.27,17.56,2.17,9.1-3.57,18.63-13.49,21.21-8.49,2.21-17.39,3.28-26.17,3.81-13.18.81-26.48,1.39-39.43-2.21-4.54-1.26-9.01-2.94-13.27-4.95-11.06-5.22-16.54-14.37-17.53-26.35-.26-3.1-.14-6.24-.05-9.35.27-9.3,4.74-16.15,12.71-20.65,7.15-4.04,14.86-5.41,23.4-4.2Z"/>
  <path class="cls-1" d="M203.6,123.47c-1.32,2.03-2.09,3.61-3.21,4.87-9.28,10.51-21.01,17.17-34.32,21.05-16.73,4.88-33.59,5.37-50.04-.92-17.07-6.53-29.25-17.96-33.17-36.56-3.82-18.12,8.47-37,26.67-41.41,12.63-3.06,24.67-2.08,35.38,5.71,9.43,6.86,14.67,15.91,12.21,28.09-.97,4.8-6.68,11.9-12.67,10.9,1.29-1.59,2.72-2.95,3.68-4.59,5.23-8.95-.49-21.74-11.41-25.69-9.45-3.42-19.88-.86-26.33,6.46-6.38,7.25-7.56,19.11-2.46,28.11,6.15,10.87,15.83,17.31,27.8,19.8,23.52,4.9,45.08.29,64.17-14.67.49-.38,1-.75,1.55-1.03.28-.14.68-.06,2.15-.13Z"/>
  <path class="cls-1" d="M94.94,167.55c9.46,1.59,18.97,3.74,27.93.44,10.43-3.84,21.18-1.43,31.66-3.59,22.25-4.59,40.27-15.49,54.07-33.45,7-9.12,11.87-19.32,14.68-30.44,2.79-11.05,2.96-22.2.31-33.35-.22-.91-.25-1.86.45-3.27.74.81,1.67,1.5,2.18,2.43,7.39,13.49,10.09,27.77,6.96,42.96-6.85,33.23-28.24,53.45-58.81,65.18-16.85,6.47-34.32,7.25-51.95,3.98-9.11-1.69-17.83-4.68-25.79-9.58-.6-.37-1.12-.88-1.68-1.32Z"/>
  <path class="cls-1" d="M782.54,74.33c9.75.55,18.93,2.61,25.25,10.47,3.59,4.46,6.39,9.81,8.43,15.18,2.25,5.92-1.33,11.7-7.99,13.96-7.9,2.68-15.58,2.33-21-6.09-5.95-9.22-11.94-18.4-17.97-27.56-1.65-2.51-1.02-3.98,1.84-4.43,3.8-.59,7.62-1.03,11.44-1.54Z"/>
  <path class="cls-1" d="M187.37,64.84c7.77,0,13.96,6.25,13.92,14.08-.04,7.64-6.17,13.73-13.86,13.77-7.74.04-14.03-6.36-13.91-14.18.12-7.85,6.01-13.66,13.86-13.67Z"/>
  <path class="cls-1" d="M602.92,59.87c-2.19-.8-4.9-1.04-6.47-2.5-4.6-4.28-8.76-9.03-13.06-13.62-.32-.34-.45-.88-.63-1.34-1.5-3.78.76-7.41,6.37-10.28,7.09-3.62,10.72-3.68,12.82.4,2.94,5.74,5.75,11.6,7.96,17.64,2.27,6.22-.27,9.28-6.98,9.7Z"/>
</svg>