<svg width="209" height="47" viewBox="0 0 209 47" fill="none" xmlns="http://www.w3.org/2000/svg">
<path d="M17.8155 25.4904C16.7175 24.3924 16.7175 22.6076 17.8155 21.5056L30.1649 9.15619C32.1453 7.17581 32.1453 3.96567 30.1649 1.98529C28.1845 0.00490409 24.9744 0.00490409 22.994 1.98529L8.65619 16.3271C6.67581 14.3467 3.46567 14.3467 1.48529 16.3271C-0.495096 18.3075 -0.495096 21.5176 1.48529 23.498L14.6293 36.642L21.8002 29.4711L17.8155 25.4864V25.4904ZM3.78509 22.0886C3.60542 21.9808 3.42974 21.861 3.27402 21.7053C2.28383 20.7151 2.28782 19.11 3.27402 18.1198C4.26421 17.1296 5.86529 17.1296 6.85947 18.1198C7.84567 19.106 7.84967 20.7111 6.85947 21.7053C6.025 22.5398 4.75532 22.6595 3.78509 22.0886ZM24.7907 7.37145C23.9602 6.54097 23.8405 5.2633 24.4114 4.29307C24.5192 4.1134 24.639 3.93772 24.7907 3.786C25.7809 2.79581 27.386 2.7998 28.3762 3.786C29.3664 4.77619 29.3664 6.37727 28.3762 7.37145C27.39 8.35765 25.7849 8.36164 24.7907 7.37145Z" fill="#3D3D5C"/>
<path d="M44.5027 23.498L31.3587 10.354L24.1878 17.5249L28.1726 21.5096C29.2705 22.6076 29.2705 24.3924 28.1726 25.4944L15.8231 37.8438C13.8427 39.8242 13.8427 43.0343 15.8231 45.0147C17.8035 46.9951 21.0136 46.9951 22.994 45.0147L37.3318 30.6769C39.3122 32.6573 42.5223 32.6573 44.5027 30.6769C46.4831 28.6965 46.4831 25.4864 44.5027 23.506V23.498ZM17.6158 43.214C16.6256 42.2238 16.6296 40.6187 17.6158 39.6285C18.606 38.6384 20.2071 38.6384 21.2013 39.6285C22.0398 40.467 22.1555 41.7327 21.5846 42.7029C21.4768 42.8826 21.357 43.0583 21.2013 43.214C20.2151 44.2002 18.606 44.2002 17.6158 43.214ZM39.1245 28.8762C38.1344 27.886 38.1384 26.2809 39.1245 25.2907C39.959 24.4563 41.2327 24.3325 42.1989 24.9074C42.3826 25.0112 42.5543 25.135 42.71 25.2907C43.6962 26.2769 43.7002 27.882 42.71 28.8762C41.7238 29.8624 40.1147 29.8624 39.1245 28.8762Z" fill="#3D3D5C"/>
<path d="M61.2521 37.8318V11.5279H56.2133V7.42735H70.647V11.5279H65.6082V37.8318H61.2521Z" fill="#3D3D5C"/>
<path d="M87.2527 28.6526H78.6284V31.5992C78.6284 32.282 78.8201 32.809 79.2034 33.1803C79.5867 33.5516 80.1057 33.7353 80.7605 33.7353C81.587 33.7353 82.134 33.4918 82.4055 33.0086C82.677 32.5255 82.8407 32.0424 82.8966 31.5553H87.2527C87.2527 33.4638 86.6697 35.001 85.4999 36.1669C84.9289 36.7658 84.2461 37.2329 83.4516 37.5763C82.6531 37.9197 81.7587 38.0874 80.7605 38.0874C79.395 38.0874 78.2331 37.8039 77.2789 37.2329C76.3246 36.662 75.5939 35.9113 75.0789 34.9691C74.7635 34.3981 74.5519 33.7473 74.4401 33.0046C74.3243 32.266 74.2684 31.4555 74.2684 30.5691V23.4381C74.2684 22.5557 74.3243 21.7452 74.4401 21.0026C74.5519 20.2639 74.7675 19.6091 75.0789 19.0381C75.59 18.0999 76.3246 17.3452 77.2789 16.7743C78.2331 16.2033 79.391 15.9198 80.7605 15.9198C81.7547 15.9198 82.661 16.0915 83.4716 16.4309C84.2821 16.7743 84.9728 17.2414 85.5438 17.8403C86.6817 19.122 87.2527 20.7311 87.2527 22.6635V28.6526ZM78.6284 25.2348H82.8966V22.7594C82.8966 21.9329 82.705 21.314 82.3217 20.9027C81.9384 20.4915 81.4193 20.2839 80.7645 20.2839C80.1097 20.2839 79.5907 20.4915 79.2074 20.9027C78.8241 21.314 78.6324 21.9329 78.6324 22.7594V25.2348H78.6284Z" fill="#3D3D5C"/>
<path d="M98.2685 31.5992C98.2685 32.282 98.4602 32.809 98.8435 33.1803C99.2268 33.5516 99.7458 33.7353 100.401 33.7353C101.227 33.7353 101.774 33.4918 102.046 33.0086C102.317 32.5255 102.481 32.0424 102.537 31.5553H106.893C106.893 33.4638 106.31 35.001 105.14 36.1669C104.569 36.7658 103.886 37.2329 103.092 37.5763C102.293 37.9197 101.399 38.0874 100.401 38.0874C99.0351 38.0874 97.8733 37.8039 96.919 37.2329C95.9648 36.662 95.2341 35.9113 94.719 34.9691C94.4036 34.3981 94.192 33.7473 94.0762 33.0046C93.9604 32.266 93.9045 31.4555 93.9045 30.5691V23.4381C93.9045 22.5557 93.9604 21.7452 94.0762 21.0026C94.192 20.2639 94.4036 19.6091 94.719 19.0381C95.2301 18.0999 95.9648 17.3452 96.919 16.7743C97.8733 16.2033 99.0312 15.9198 100.401 15.9198C101.395 15.9198 102.301 16.0915 103.112 16.4309C103.922 16.7743 104.613 17.2414 105.184 17.8403C106.322 19.122 106.893 20.787 106.893 22.8352H102.537C102.537 21.9528 102.345 21.306 101.962 20.8908C101.578 20.4795 101.059 20.2719 100.405 20.2719C99.7498 20.2719 99.2308 20.4795 98.8475 20.8908C98.4642 21.302 98.2725 21.9209 98.2725 22.7474V31.5992H98.2685Z" fill="#3D3D5C"/>
<path d="M113.513 37.8318V7.43134H117.869V18.2755H117.953C118.408 17.5928 118.955 17.0298 119.598 16.5906C120.236 16.1514 121.055 15.9278 122.053 15.9278C122.592 15.9278 123.135 16.0197 123.674 16.2033C124.213 16.387 124.7 16.6944 125.128 17.1216C125.555 17.5489 125.898 18.0959 126.154 18.7666C126.409 19.4374 126.537 20.2559 126.537 21.2222V37.8318H122.181V22.8432C122.181 22.0486 121.997 21.4218 121.626 20.9626C121.255 20.5075 120.728 20.2799 120.045 20.2799C119.218 20.2799 118.647 20.5354 118.336 21.0465C118.02 21.5575 117.865 22.3002 117.865 23.2664V37.8278H113.509H113.513V37.8318Z" fill="#3D3D5C"/>
<path d="M137.297 37.8318V11.5279H132.258V7.42735H146.692V11.5279H141.653V37.8318H137.297Z" fill="#3D3D5C"/>
<path d="M150.701 37.8318V16.1834H155.057V18.4872C155.939 17.6926 156.81 17.0658 157.66 16.6066C158.515 16.1514 159.569 15.9238 160.818 15.9238V20.5354C160.391 20.3637 159.948 20.2799 159.493 20.2799C159.038 20.2799 158.546 20.3597 158.019 20.5154C157.492 20.6712 157.017 20.9347 156.59 21.306C156.135 21.6773 155.764 22.1604 155.48 22.7594C155.197 23.3583 155.053 24.0969 155.053 24.9793V37.8318H150.697H150.701Z" fill="#3D3D5C"/>
<path d="M173.164 35.6119H173.08C172.509 36.4104 171.934 37.0213 171.351 37.4485C170.768 37.8757 169.95 38.0874 168.896 38.0874C168.385 38.0874 167.861 38.0075 167.338 37.8518C166.811 37.6961 166.304 37.4046 165.821 36.9774C165.338 36.5781 164.947 36.0032 164.647 35.2485C164.348 34.4939 164.2 33.5197 164.2 32.3219C164.2 31.1241 164.3 30.0221 164.5 29.0998C164.699 28.1735 165.071 27.3989 165.61 26.772C166.121 26.1731 166.819 25.7259 167.702 25.4265C168.584 25.127 169.71 24.9793 171.076 24.9793H171.547C171.718 24.9793 171.874 24.9953 172.018 25.0232C172.162 25.0512 172.329 25.0671 172.529 25.0671C172.729 25.0671 172.94 25.0831 173.168 25.1111V22.8472C173.168 22.1085 173.012 21.4937 172.697 21.0105C172.381 20.5274 171.814 20.2839 170.988 20.2839C170.417 20.2839 169.898 20.4675 169.431 20.8389C168.959 21.2102 168.656 21.7492 168.512 22.4599H164.284C164.396 20.5234 165.055 18.9583 166.248 17.7645C166.819 17.1935 167.502 16.7463 168.297 16.4189C169.091 16.0915 169.99 15.9278 170.988 15.9278C171.898 15.9278 172.753 16.0716 173.551 16.355C174.35 16.6385 175.044 17.0657 175.643 17.6367C176.214 18.2077 176.669 18.9184 177.009 19.7728C177.352 20.6272 177.52 21.6254 177.52 22.7633V37.8358H173.164V35.6119ZM173.164 28.5248C172.681 28.441 172.281 28.3971 171.97 28.3971C171.032 28.3971 170.225 28.6167 169.558 29.0598C168.888 29.503 168.556 30.3056 168.556 31.4714C168.556 32.2979 168.756 32.9647 169.155 33.4798C169.554 33.9908 170.109 34.2504 170.82 34.2504C171.531 34.2504 172.138 34.0068 172.549 33.5237C172.96 33.0406 173.168 32.3578 173.168 31.4754V28.5288L173.164 28.5248Z" fill="#3D3D5C"/>
<path d="M183.924 11.7874V7.43134H188.28V11.7874H183.924ZM183.924 37.8318V16.1834H188.28V37.8318H183.924Z" fill="#3D3D5C"/>
<path d="M195.068 37.8318V16.1834H199.424V18.2755H199.512C199.967 17.5928 200.514 17.0298 201.157 16.5906C201.795 16.1514 202.614 15.9278 203.612 15.9278C204.151 15.9278 204.694 16.0197 205.233 16.2033C205.772 16.387 206.259 16.6944 206.687 17.1216C207.114 17.5489 207.453 18.0959 207.713 18.7666C207.968 19.4374 208.096 20.2559 208.096 21.2222V37.8318H203.74V22.8432C203.74 22.0486 203.552 21.4218 203.185 20.9626C202.814 20.5075 202.287 20.2799 201.604 20.2799C200.777 20.2799 200.21 20.5354 199.895 21.0465C199.584 21.5575 199.424 22.3002 199.424 23.2664V37.8278H195.068V37.8318Z" fill="#3D3D5C"/>
</svg>

