<?xml version="1.0" encoding="utf-8"?>
<!-- Generator: Adobe Illustrator 27.7.0, SVG Export Plug-In . SVG Version: 6.00 Build 0)  -->
<svg version="1.1" id="レイヤー_1" xmlns="http://www.w3.org/2000/svg" xmlns:xlink="http://www.w3.org/1999/xlink" x="0px"
	 y="0px" viewBox="0 0 464 102" style="enable-background:new 0 0 464 102;" xml:space="preserve">
<path d="M1,1h26.8C33.9,1,39.6,4,43,9l63,92H79.2c-6.1,0-11.7-3-15.2-8L1,1z"/>
<path d="M106,51.7L106,1H71.3L106,51.7z"/>
<path d="M1,50.3L1,101h34.7L1,50.3z"/>
<path d="M150,22.7h13.4l26.3,42.4h0.2V22.7H200v56.6h-12.8l-26.9-43.8h-0.2v43.8H150V22.7z"/>
<path d="M221.7,58.9l-13.8-18h11.5l8.3,11.9l8.6-11.9h11l-13.8,18l15.7,20.4h-11.7l-10-14l-10.1,14h-11.4L221.7,58.9z"/>
<path d="M266.9,31.5h-17.4v-8.8h44.8v8.8h-17.4v47.8h-10.1V31.5z"/>
<path d="M300.9,22.7h37.5v8.8H311v14.4h26v8.5h-26v16h28.9v9h-39V22.7z"/>
<path d="M349.7,22.7h13.4l26.3,42.4h0.2V22.7h10.1v56.6h-12.8L360,35.6h-0.2v43.8h-10.1V22.7z"/>
<path d="M412.1,22.7h20.1c3.7,0,7.4,0.5,11.1,1.4c3.7,1,7.1,2.6,10.1,4.8c3,2.2,5.4,5.1,7.3,8.7c1.9,3.6,2.8,8,2.8,13.4
	c0,5-0.9,9.2-2.8,12.8c-1.9,3.6-4.3,6.5-7.3,8.8c-3,2.3-6.3,4-10.1,5.1c-3.7,1.1-7.4,1.6-11.1,1.6h-20.1V22.7z M430.6,70.5
	c2.6,0,5.2-0.3,7.8-0.9c2.6-0.6,5-1.7,7-3.1c2.1-1.5,3.9-3.5,5.2-6c1.3-2.5,2-5.7,2-9.5c0-4.1-0.7-7.4-2-9.9c-1.3-2.6-3.1-4.6-5.2-6
	c-2.1-1.4-4.4-2.4-7-3c-2.6-0.5-5.2-0.8-7.8-0.8h-8.4v39.2H430.6z"/>
</svg>
